<svg xmlns="http://www.w3.org/2000/svg" width="64.067" height="64" viewBox="0 0 64.067 64"><g transform="translate(0 0)"><g transform="translate(4 35.778)"><path d="M19.133,51.056H3V48.389H18.867l27.067-6.8,13.733-8.933a1.668,1.668,0,0,0,.4-2.267c0-.133-.133-.133-.267-.267a1.638,1.638,0,0,0-2-.267l-10.667,7.2h-13.2V34.389h12.4l10-6.8a4.255,4.255,0,0,1,5.467.533,2.909,2.909,0,0,1,.533.667,4.309,4.309,0,0,1-1.2,6L47,43.989Z" transform="translate(-3 -26.833)" fill="#fff"/></g><g transform="translate(37.733 35.967)"><path d="M29.767,36.875,28.3,34.608l10.8-6.933a4.267,4.267,0,0,1,6.533,2.8l-2.667.4a1.521,1.521,0,0,0-.4-.8,1.638,1.638,0,0,0-2-.267Z" transform="translate(-28.3 -26.975)" fill="#fff"/></g><g transform="translate(5.333 37.333)"><path d="M7.333,38.667H4V36H6.533l9.6-6.267A7.835,7.835,0,0,1,20.933,28H40.267v3.2a5.634,5.634,0,0,1-5.6,5.6H27.2V34.133h7.467A2.959,2.959,0,0,0,37.6,31.2v-.533H20.933a4.778,4.778,0,0,0-3.2,1.2L17.6,32Z" transform="translate(-4 -28)" fill="#fff"/></g><g transform="translate(0 45.333)"><path d="M6.667,52.667H0V50H4V36.667H0V34H6.667Z" transform="translate(0 -34)" fill="#fff"/></g><g transform="translate(45.333 12)"><path d="M40.667,22.333a6.667,6.667,0,1,1,6.667-6.667A6.6,6.6,0,0,1,40.667,22.333Zm0-10.667a4,4,0,1,0,4,4A3.929,3.929,0,0,0,40.667,11.667Z" transform="translate(-34 -9)" fill="#fff"/></g><g transform="translate(50.667)"><g transform="translate(0 5.333)"><rect width="2.667" height="4.8" fill="#fff"/></g><rect width="2.667" height="2.667" fill="#fff"/></g><g transform="translate(29.333 12)"><g transform="translate(0 12)"><path d="M27.333,28.667a5.333,5.333,0,1,1,5.333-5.333A5.349,5.349,0,0,1,27.333,28.667Zm0-8A2.667,2.667,0,1,0,30,23.333,2.675,2.675,0,0,0,27.333,20.667Z" transform="translate(-22 -18)" fill="#fff"/></g><g transform="translate(4)"><g transform="translate(0 5.333)"><rect width="2.667" height="4.8" fill="#fff"/></g><rect width="2.667" height="2.667" fill="#fff"/></g></g><g transform="translate(20 6.667)"><rect width="2.667" height="2.667" fill="#fff"/></g><g transform="translate(16 10.667)"><rect width="2.667" height="2.667" fill="#fff"/></g><g transform="translate(24 10.667)"><rect width="2.667" height="2.667" fill="#fff"/></g><g transform="translate(20 14.667)"><rect width="2.667" height="2.667" fill="#fff"/></g></g></svg>