<svg xmlns="http://www.w3.org/2000/svg" width="24.521" height="28.2" viewBox="0 0 24.521 28.2">
    <defs>
        <style>
            .cls-1{fill:#4699a1}
        </style>
    </defs>
    <g id="privacy" transform="translate(-2 -1)">
        <path id="Path_99" d="M25.561 3.48L14.527 1.028a1.255 1.255 0 0 0-.532 0L2.96 3.48A1.226 1.226 0 0 0 2 4.678v12.261a12.261 12.261 0 1 0 24.521 0V4.678a1.226 1.226 0 0 0-.96-1.198zm-5.17 17.137a1.226 1.226 0 0 1-1.226 1.226H9.356a1.226 1.226 0 0 1-1.226-1.226v-6.13a1.226 1.226 0 0 1 1.226-1.226h1.226v-2.452a3.678 3.678 0 0 1 7.356 0v2.452h1.226a1.226 1.226 0 0 1 1.226 1.226z" class="cls-1" data-name="Path 99"/>
        <path id="Path_100" d="M12.226 8A1.226 1.226 0 0 0 11 9.226v2.452h2.452V9.226A1.226 1.226 0 0 0 12.226 8z" class="cls-1" data-name="Path 100" transform="translate(2.035 1.583)"/>
    </g>
</svg>
