<svg xmlns="http://www.w3.org/2000/svg" width="27.82" height="33.677" viewBox="0 0 27.82 33.677">
    <defs>
        <style>
            .cls-1,.cls-2{fill:none;stroke:#fff;stroke-miterlimit:10;stroke-width:2px}.cls-1{stroke-linecap:square}
        </style>
    </defs>
    <g id="receipt-2" transform="translate(.999 1.477)">
        <path id="Path_30" d="M29.821 33.2H4V2l5.379 2.152L12.607 2l4.3 2.152L21.214 2l3.228 2.152L29.821 2z" class="cls-1" data-name="Path 30" transform="translate(-4 -2)"/>
        <path id="Path_31" d="M13 21.5a2.8 2.8 0 0 0 2.832 2.832h1.133A2.8 2.8 0 0 0 19.8 21.5c0-3.965-6.8-1.7-6.8-5.664A2.8 2.8 0 0 1 15.832 13h1.133a2.8 2.8 0 0 1 2.835 2.832" class="cls-1" data-name="Path 31" transform="translate(-3.488 -1.495)"/>
        <path id="Line_9" d="M0 0v3.398" class="cls-2" data-name="Line 9" transform="translate(12.91 22.455)"/>
        <path id="Line_10" d="M0 0v3.398" class="cls-2" data-name="Line 10" transform="translate(12.91 8.554)"/>
    </g>
</svg>
