<svg xmlns="http://www.w3.org/2000/svg" width="24.29" height="50.26" viewBox="0 0 24.29 50.26"><path d="M-3.08-15.26q.91,1.19,4.13,4.48A43.406,43.406,0,0,1,4.97-6.16q-.7-25.27-.28-35.49a.994.994,0,0,1,.385-.805,1.344,1.344,0,0,1,.875-.315.994.994,0,0,1,.805.385,1.344,1.344,0,0,1,.315.875q-.42,10.36.28,33.53A30.141,30.141,0,0,1,14-17.08a1.394,1.394,0,0,1,.91-.35.994.994,0,0,1,.805.385,1.344,1.344,0,0,1,.315.875.932.932,0,0,1-.35.77A28.452,28.452,0,0,0,8.75-5.32l-.14.77L8.26-2.8q-.21,1.12-.35,1.75a4.463,4.463,0,0,1-.14.63.76.76,0,0,1-.14.28,1.085,1.085,0,0,1-.42.63A1.244,1.244,0,0,1,5.88.56,1.25,1.25,0,0,1,5.53.21a1.353,1.353,0,0,1-.175-.245A3.885,3.885,0,0,1,5.11-.56l-.63-1.4A16.422,16.422,0,0,0,3.15-4.62,40.9,40.9,0,0,0-.7-9.17q-3.43-3.57-4.2-4.55a1.126,1.126,0,0,1-.28-.91,1.232,1.232,0,0,1,.455-.805,1.084,1.084,0,0,1,.875-.245A1.153,1.153,0,0,1-3.08-15.26ZM-4.27,5.11q1.75-.07,5.53-.28t5.5-.28q1.715-.07,5.495-.14t5.53.07a.994.994,0,0,1,.805.385,1.344,1.344,0,0,1,.315.875.994.994,0,0,1-.385.8,1.344,1.344,0,0,1-.875.315q-1.75-.14-5.46-.07t-5.425.14Q5.04,7,1.33,7.21t-5.46.28A1.344,1.344,0,0,1-5,7.175.994.994,0,0,1-5.39,6.37,1.344,1.344,0,0,1-5.075,5.5.994.994,0,0,1-4.27,5.11Z" transform="translate(5.39 42.77)" fill="#f0f8f9"/></svg>