<svg xmlns="http://www.w3.org/2000/svg" width="38.696" height="32.494" viewBox="0 0 38.696 32.494">
    <defs>
        <style>
            .cls-1{fill:#fff}
        </style>
    </defs>
    <g id="bl_676_suitcase_business_baggage_briefcase_document_portfolio_luggage" data-name="bl 676, suitcase, business, baggage, briefcase, document, portfolio, luggage">
        <path id="Path_43" d="M38.084 40.736H1v-16.93a.806.806 0 1 1 1.612 0v15.317h33.86V23.806a.806.806 0 1 1 1.612 0z" class="cls-1" data-name="Path 43" transform="translate(-.194 -8.242)"/>
        <path id="Path_44" d="M27.286 10.337h-1.612a4.031 4.031 0 1 0-8.062 0H16a5.643 5.643 0 0 1 11.286 0z" class="cls-1" data-name="Path 44" transform="translate(-3.101 -4.693)"/>
        <path id="Path_45" d="M8.419 29.643A2.421 2.421 0 0 1 6 27.225v-.806a.806.806 0 1 1 1.612 0v.806a.806.806 0 1 0 1.612 0v-2.419a.806.806 0 0 1 1.612 0v2.419a2.421 2.421 0 0 1-2.417 2.418z" class="cls-1" data-name="Path 45" transform="translate(-1.163 -8.436)"/>
        <path id="Path_46" d="M19.352 23.944a70.873 70.873 0 0 1-18.763-2.62L0 21.16V11h38.7v10.16l-.589.165a70.86 70.86 0 0 1-18.755 2.62zm-17.74-4.01a69.242 69.242 0 0 0 17.74 2.4 69.226 69.226 0 0 0 17.732-2.4v-7.322H1.612z" class="cls-1" data-name="Path 46" transform="translate(0 -5.916)"/>
        <path id="Path_47" d="M38.419 29.507A2.421 2.421 0 0 1 36 27.088a.806.806 0 1 1 1.612 0 .806.806 0 0 0 1.612 0V24.1a.806.806 0 1 1 1.612 0v2.987a2.421 2.421 0 0 1-2.419 2.419z" class="cls-1" data-name="Path 47" transform="translate(-6.978 -8.299)"/>
    </g>
</svg>
