<svg xmlns="http://www.w3.org/2000/svg" width="63.599" height="63.467" viewBox="0 0 63.599 63.467"><g transform="translate(0)"><g transform="translate(7.669 5.251)"><path d="M25.9,31.776a1.249,1.249,0,0,1-1.322-1.322,3.411,3.411,0,0,0-1.851-2.909L14,23.975V18.95l1.19-1.058a4.029,4.029,0,0,0,1.719-3.438V11.149a4.445,4.445,0,0,0-3.834-4.5,4.144,4.144,0,0,0-4.5,3.834v3.967a4.385,4.385,0,0,0,3.57,4.231,1.272,1.272,0,1,1-.4,2.512A7.055,7.055,0,0,1,5.8,14.455V10.224a7.056,7.056,0,0,1,7.669-6.214,7.053,7.053,0,0,1,6.214,7.14v3.306a6.7,6.7,0,0,1-2.777,5.421l-.264.264v2.116l7.14,2.909a5.785,5.785,0,0,1,3.438,5.289A1.325,1.325,0,0,1,25.9,31.776Z" transform="translate(-5.8 -3.971)" fill="#fff"/></g><g transform="translate(0 20.098)"><path d="M6.611,55.131H1.587L0,51.826V26.836a5.785,5.785,0,0,1,3.438-5.289l7.14-2.909V15.2h2.644v5.157L4.5,23.927a3.252,3.252,0,0,0-1.851,2.909V51.3l.661,1.19H6.611Z" transform="translate(0 -15.2)" fill="#fff"/></g><g transform="translate(5.289 35.7)"><rect width="2.644" height="27.767" fill="#fff"/></g><g transform="translate(5.289 52.889)"><path d="M14.578,42.644H5.322a1.322,1.322,0,1,1,0-2.644h9.256a1.322,1.322,0,1,1,0,2.644Z" transform="translate(-4 -40)" fill="#fff"/></g><g transform="translate(13.354 58.178)"><rect width="2.644" height="5.289" fill="#fff"/></g><g transform="translate(18.511 33.018)"><path d="M40.444,55.42H37.8V49.47a3.9,3.9,0,0,0-2.248-3.57l-7.008-3.57V37.967l.661-.4a3.735,3.735,0,0,0,1.983-3.306v-2.38a4.162,4.162,0,0,0-3.57-4.231,3.871,3.871,0,0,0-2.909.926,4.085,4.085,0,0,0-1.454,2.644v3.041A4.113,4.113,0,0,0,25.239,37.7l.661.4v4.363l-7.008,3.57a3.982,3.982,0,0,0-2.248,3.57V55.42H14V49.47a6.768,6.768,0,0,1,3.7-5.95l5.553-2.777v-1.19a6.7,6.7,0,0,1-2.644-5.289V30.959a6.63,6.63,0,0,1,13.222.926v2.38a6.7,6.7,0,0,1-2.644,5.289v1.19l5.553,2.777a6.768,6.768,0,0,1,3.7,5.95v5.95Z" transform="translate(-14 -24.971)" fill="#fff"/></g><g transform="translate(38.873 0)"><g transform="translate(5.195)"><path d="M35.142,8.33c-.264-.132-.4-.4-.661-.529a4.756,4.756,0,0,1,.4-6.611A5.178,5.178,0,0,1,38.315,0a4.9,4.9,0,0,1,3.173,1.587,5.178,5.178,0,0,1,1.19,3.438A4.9,4.9,0,0,1,41.092,8.2L39.373,6.214a1.922,1.922,0,0,0,.132-2.777,1.454,1.454,0,0,0-1.322-.793,1.988,1.988,0,0,0-1.454.529A1.922,1.922,0,0,0,36.6,5.95l.264.264Z" transform="translate(-33.329 0)" fill="#fff"/></g><g transform="translate(15.338 34.378)"><path d="M45.76,55.089H43.116V53.767c0-3.834-.529-5.289-1.587-8.594L41,43.453V38.3l1.322-7.669V26h2.644v4.892l-1.322,7.669v4.363l.4,1.322a22.889,22.889,0,0,1,1.719,9.388Z" transform="translate(-41 -26)" fill="#fff"/></g><g transform="translate(0 25.387)"><path d="M39.052,25.414H37.994A12.937,12.937,0,0,1,29.4,21.051l1.983-1.719a9.616,9.616,0,0,0,6.743,3.438A9.906,9.906,0,0,0,45.4,20.39l1.19-1.19,1.983,1.719a7.577,7.577,0,0,1-1.454,1.454A12,12,0,0,1,39.052,25.414Z" transform="translate(-29.4 -19.2)" fill="#fff"/></g><g transform="translate(4.363 8.066)"><path d="M32.7,12.843V10.2a12.574,12.574,0,0,0,8.594-3.57l.529-.529,1.851,1.983-.529.529A14.584,14.584,0,0,1,32.7,12.843Z" transform="translate(-32.7 -6.1)" fill="#fff"/></g><g transform="translate(7.404 50.244)"><path d="M44.256,40.644H36.322a1.322,1.322,0,0,1,0-2.644h7.933a1.249,1.249,0,0,1,1.322,1.322A1.325,1.325,0,0,1,44.256,40.644Z" transform="translate(-35 -38)" fill="#fff"/></g></g><g transform="translate(26.444 50.244)"><path d="M25.289,43.289A5.3,5.3,0,0,1,20,38h2.644a2.644,2.644,0,1,0,5.289,0h2.644A5.3,5.3,0,0,1,25.289,43.289Z" transform="translate(-20 -38)" fill="#fff"/></g><g transform="translate(34.378 5.553)"><path d="M53.238,57.882h-4.1a1.322,1.322,0,0,1,0-2.644H52.18l.4-.4V30.38a3.157,3.157,0,0,0-1.983-2.909L41.867,23.24V17.29l.661-.4a4.22,4.22,0,0,0,2.116-3.7V11.076a4.074,4.074,0,0,0-4.231-4.231h-.4a4.314,4.314,0,0,0-3.834,4.363v1.983a4.183,4.183,0,0,0,2.248,3.7l.661.4v5.686l-8.462,4.363a3.653,3.653,0,0,0-1.983,3.041,1.322,1.322,0,1,1-2.644,0,6.141,6.141,0,0,1,3.57-5.289l7.008-3.57V19.009a6.9,6.9,0,0,1-3.041-5.686V11.34A7.248,7.248,0,0,1,39.751,4.2h.661a6.774,6.774,0,0,1,6.876,6.876v2.248a6.951,6.951,0,0,1-2.777,5.553v2.777l7.14,3.438a5.633,5.633,0,0,1,3.57,5.289l-.132,25.651Z" transform="translate(-26 -4.2)" fill="#fff"/></g><g transform="translate(44.986 18.278)"><path d="M36.9,17.1a.8.8,0,0,1-.529-.132L34.786,16.3a1.3,1.3,0,0,1,1.058-2.38l1.587.661a1.312,1.312,0,0,1,.661,1.719A1.271,1.271,0,0,1,36.9,17.1Z" transform="translate(-34.023 -13.823)" fill="#fff"/></g></g></svg>