<svg xmlns="http://www.w3.org/2000/svg" width="56.567" height="54.097" viewBox="0 0 56.567 54.097">
    <defs>
        <style>
            .cls-1{fill:#007c89}
        </style>
    </defs>
    <g id="bl_282_corporate_law_book_calculator_business_read_finance" data-name="bl 282, corporate law, book, calculator, business, read, finance" transform="translate(.1 -1)">
        <g id="Group_52" data-name="Group 52" transform="translate(35.181 15.112)">
            <path id="Path_60" d="M51.069 43.577H29.9V13h21.169zm-18.817-2.352h16.464V15.352H32.252v25.873z" class="cls-1" data-name="Path 60" transform="translate(-29.9 -13)"/>
        </g>
        <g id="Group_53" data-name="Group 53" transform="translate(39.885 38.633)">
            <path id="Rectangle_61" d="M0 0h2.352v2.352H0z" class="cls-1" data-name="Rectangle 61"/>
        </g>
        <g id="Group_54" data-name="Group 54" transform="translate(44.589 38.633)">
            <path id="Rectangle_62" d="M0 0h2.352v2.352H0z" class="cls-1" data-name="Rectangle 62"/>
        </g>
        <g id="Group_55" data-name="Group 55" transform="translate(49.293 38.633)">
            <path id="Rectangle_63" d="M0 0h2.352v2.352H0z" class="cls-1" data-name="Rectangle 63"/>
        </g>
        <g id="Group_56" data-name="Group 56" transform="translate(39.885 33.929)">
            <path id="Rectangle_64" d="M0 0h2.352v2.352H0z" class="cls-1" data-name="Rectangle 64"/>
        </g>
        <g id="Group_57" data-name="Group 57" transform="translate(44.589 33.929)">
            <path id="Rectangle_65" d="M0 0h2.352v2.352H0z" class="cls-1" data-name="Rectangle 65"/>
        </g>
        <g id="Group_58" data-name="Group 58" transform="translate(49.293 33.929)">
            <path id="Rectangle_66" d="M0 0h2.352v2.352H0z" class="cls-1" data-name="Rectangle 66"/>
        </g>
        <g id="Group_59" data-name="Group 59" transform="translate(39.885 29.225)">
            <path id="Rectangle_67" d="M0 0h2.352v2.352H0z" class="cls-1" data-name="Rectangle 67"/>
        </g>
        <g id="Group_60" data-name="Group 60" transform="translate(44.589 29.225)">
            <path id="Rectangle_68" d="M0 0h2.352v2.352H0z" class="cls-1" data-name="Rectangle 68"/>
        </g>
        <g id="Group_61" data-name="Group 61" transform="translate(49.293 29.225)">
            <path id="Rectangle_69" d="M0 0h2.352v2.352H0z" class="cls-1" data-name="Rectangle 69"/>
        </g>
        <g id="Group_62" data-name="Group 62" transform="translate(39.885 19.816)">
            <path id="Path_61" d="M45.66 24.056H33.9V17h11.76zM36.252 21.7h7.056v-2.348h-7.056z" class="cls-1" data-name="Path 61" transform="translate(-33.9 -17)"/>
        </g>
        <g id="Group_63" data-name="Group 63" transform="translate(12.131 48.041)">
            <path id="Path_62" d="M51.108 48.056l-.118-1.176.118 1.176H15.357L10.3 44.528 15.592 41h35.516a3.465 3.465 0 0 1 3.528 3.528A3.2 3.2 0 0 1 53.578 47a3.385 3.385 0 0 1-2.47 1.056zM16.063 45.7h34.928a1.335 1.335 0 0 0 .941-.353 1.068 1.068 0 0 0 .353-.823 1.178 1.178 0 0 0-1.176-1.176H16.18l-1.764 1.176z" class="cls-1" data-name="Path 62" transform="translate(-10.3 -41)"/>
        </g>
        <g id="Group_64" data-name="Group 64" transform="translate(35.299 10.408)">
            <path id="Rectangle_70" d="M0 0h14.112v2.352H0z" class="cls-1" data-name="Rectangle 70"/>
        </g>
        <g id="Group_65" data-name="Group 65" transform="translate(7.074 29.225)">
            <path id="Rectangle_71" d="M0 0h14.112v2.352H0z" class="cls-1" data-name="Rectangle 71"/>
        </g>
        <g id="Group_66" data-name="Group 66" transform="translate(7.074 24.521)">
            <path id="Rectangle_72" d="M0 0h14.112v2.352H0z" class="cls-1" data-name="Rectangle 72"/>
        </g>
        <g id="Group_67" data-name="Group 67" transform="translate(7.074 19.816)">
            <path id="Rectangle_73" d="M0 0h14.112v2.352H0z" class="cls-1" data-name="Rectangle 73"/>
        </g>
        <g id="Group_68" data-name="Group 68" transform="translate(7.074 15.112)">
            <path id="Rectangle_74" d="M0 0h14.112v2.352H0z" class="cls-1" data-name="Rectangle 74"/>
        </g>
        <g id="Group_69" data-name="Group 69" transform="translate(7.074 10.408)">
            <path id="Rectangle_75" d="M0 0h14.112v2.352H0z" class="cls-1" data-name="Rectangle 75"/>
        </g>
        <g id="Group_70" data-name="Group 70" transform="translate(-.1 1)">
            <path id="Path_63" d="M27.066 42.161a3.037 3.037 0 0 0-1.058-2.47 3.92 3.92 0 0 0-2.47-1.058H-.1V1h25.99a1.111 1.111 0 0 1 1.176 1.176 1.111 1.111 0 0 1-1.176 1.176H2.252v32.929h21.286a5.023 5.023 0 0 1 3.41 1.176V6.88a5.923 5.923 0 0 1 6-5.88h23.519v11.643a1.176 1.176 0 1 1-2.352 0V3.352H32.946A3.723 3.723 0 0 0 29.3 6.88v35.281z" class="cls-1" data-name="Path 63" transform="translate(.1 -1)"/>
        </g>
        <g id="Group_71" data-name="Group 71" transform="translate(27.066 36.281)">
            <path id="Path_64" d="M28.88 40.408H23V36.88a5.877 5.877 0 0 1 1.646-4.116A5.989 5.989 0 0 1 28.763 31v2.352a3.2 3.2 0 0 0-2.47 1.058 3.385 3.385 0 0 0-1.058 2.47v1.176h3.528a1.111 1.111 0 0 1 1.176 1.176c0 .706-.353 1.176-1.059 1.176z" class="cls-1" data-name="Path 64" transform="translate(-23 -31)"/>
        </g>
        <g id="Group_72" data-name="Group 72" transform="translate(-.1 36.281)">
            <path id="Path_65" d="M23.538 40.408H-.1v-8.232A1.111 1.111 0 0 1 1.076 31a1.111 1.111 0 0 1 1.176 1.176v5.88h21.286a1.176 1.176 0 0 1 0 2.352z" class="cls-1" data-name="Path 65" transform="translate(.1 -31)"/>
        </g>
    </g>
</svg>
