<svg xmlns="http://www.w3.org/2000/svg" width="55.659" height="55.419" viewBox="0 0 55.659 55.419">
    <defs>
        <style>
            .cls-1{fill:#037c89}
        </style>
    </defs>
    <g id="bl_648_interview_job_boss_human_resources_meeting_business_employee" data-name="bl 648 ,interview, job, boss, human resources, meeting, business, employee" transform="translate(.004)">
        <g id="Group_36" data-name="Group 36" transform="translate(-.004 16.164)">
            <path id="Path_53" d="M1.155 53.255A1.091 1.091 0 0 1 0 52.1V35.359a10.713 10.713 0 0 1 1.963-6.119v-2.771a4.156 4.156 0 0 0-.808-2.54A6.444 6.444 0 0 1 0 20.119a5.964 5.964 0 0 1 4.734-6A4.736 4.736 0 0 1 6 14a6.036 6.036 0 0 1 6 6v4.387a2.98 2.98 0 0 1-2.07 2.89l-.808.231v1.616c3.233 3.925 4.849 7.389 4.849 10.622v4.272a1.091 1.091 0 0 1-1.155 1.155 1.091 1.091 0 0 1-1.155-1.155v-4.271c0-2.771-1.5-5.773-4.5-9.467l-.231-.346v-4.158l2.309-.808a.732.732 0 0 0 .577-.693v-4.387a3.582 3.582 0 0 0-1.039-2.54A4.606 4.606 0 0 0 6 16.309a1.464 1.464 0 0 0-.693.115 3.706 3.706 0 0 0-3 3.695 4.156 4.156 0 0 0 .808 2.54 6.444 6.444 0 0 1 1.155 3.81v3.464l-.231.346a7.964 7.964 0 0 0-1.732 5.08V52.1a1.157 1.157 0 0 1-1.152 1.155z" class="cls-1" data-name="Path 53" transform="translate(.004 -14)"/>
        </g>
        <g id="Group_37" data-name="Group 37" transform="translate(41.796 16.279)">
            <path id="Path_54" d="M48.669 53.239a1.091 1.091 0 0 1-1.155-1.155v-16.74a8.2 8.2 0 0 0-1.732-5.08l-.231-.346v-3.464a6.444 6.444 0 0 1 1.155-3.81 5.074 5.074 0 0 0 .808-2.54 3.851 3.851 0 0 0-2.886-3.81c-.231 0-.462-.115-.693-.115a3.548 3.548 0 0 0-3.579 3.579v4.618a.732.732 0 0 0 .577.693l2.309.808v4.156l-.231.346c-2.309 2.771-4.5 5.773-4.5 9.121a1.155 1.155 0 0 1-2.309 0c0-3.81 2.309-7.158 4.849-10.276v-1.616l-.808-.231a3.087 3.087 0 0 1-2.078-2.886V20.1a5.915 5.915 0 0 1 6-6 3.928 3.928 0 0 1 1.155.115 6.064 6.064 0 0 1 4.734 6.119 6.444 6.444 0 0 1-1.155 3.81 5.074 5.074 0 0 0-.808 2.54v2.771a10.447 10.447 0 0 1 1.963 6.119l-.231 16.51a1.157 1.157 0 0 1-1.155 1.155z" class="cls-1" data-name="Path 54" transform="translate(-36.2 -14.1)"/>
        </g>
        <g id="Group_38" data-name="Group 38" transform="translate(34.637 43.873)">
            <path id="Path_55" d="M43.855 40.309h-12.7a1.155 1.155 0 1 1 0-2.309h12.7a1.155 1.155 0 0 1 0 2.309z" class="cls-1" data-name="Path 55" transform="translate(-30 -38)"/>
        </g>
        <g id="Group_39" data-name="Group 39" transform="translate(4.619 34.637)">
            <path id="Path_56" d="M46.719 50.782H7.464a1.048 1.048 0 0 1-.808-.346l-2.31-2.309A1.048 1.048 0 0 1 4 47.318v-2.309a1.091 1.091 0 0 1 1.155-1.155h16.163a1.155 1.155 0 0 1 0 2.309H6.309v.693l1.616 1.616h38.332l1.616-1.616v-.693H24.782a1.109 1.109 0 0 1-1.039-.808L19.125 31.5a1.122 1.122 0 0 1 .115-1.039 1.05 1.05 0 0 1 .924-.461h11.545a1.109 1.109 0 0 1 1.039.808l4.387 13.046h11.893a1.091 1.091 0 0 1 1.155 1.155v2.309a1.048 1.048 0 0 1-.346.808l-2.309 2.309a1.048 1.048 0 0 1-.809.347zM25.59 43.855h9.121L30.9 32.309h-9.12z" class="cls-1" data-name="Path 56" transform="translate(-4 -30)"/>
        </g>
        <g id="Group_40" data-name="Group 40" transform="translate(.001)">
            <path id="Path_57" d="M1.155 15.24A1.091 1.091 0 0 1 0 14.086V2.309A2.316 2.316 0 0 1 2.309 0h21.937A1.091 1.091 0 0 1 25.4 1.155a1.091 1.091 0 0 1-1.155 1.155H2.309v11.776a1.157 1.157 0 0 1-1.154 1.154z" class="cls-1" data-name="Path 57"/>
        </g>
        <g id="Group_41" data-name="Group 41" transform="translate(13.885)">
            <path id="Path_58" d="M13.151 27.709a1.641 1.641 0 0 1-.693-.231 1.242 1.242 0 0 1-.231-1.616l3.81-5.08H24.7V0h26.551a2.316 2.316 0 0 1 2.309 2.309v12.7a1.155 1.155 0 0 1-2.309 0v-12.7H27.005v20.782h-9.813l-3.117 4.156a1.05 1.05 0 0 1-.924.462z" class="cls-1" data-name="Path 58" transform="translate(-12.026)"/>
        </g>
        <g id="Group_42" data-name="Group 42" transform="translate(30.019 20.782)">
            <path id="Path_59" d="M36.391 24.927a1.05 1.05 0 0 1-.924-.462l-3.117-4.156h-5.2a1.155 1.155 0 0 1 0-2.309h6.35l3.81 5.08a1.242 1.242 0 0 1-.231 1.616 1.641 1.641 0 0 1-.688.231z" class="cls-1" data-name="Path 59" transform="translate(-26 -18)"/>
        </g>
        <g id="Group_43" data-name="Group 43" transform="translate(34.637 10.391)">
            <path id="Rectangle_55" d="M0 0h2.309v2.309H0z" class="cls-1" data-name="Rectangle 55"/>
        </g>
        <g id="Group_44" data-name="Group 44" transform="translate(39.256 10.391)">
            <path id="Rectangle_56" d="M0 0h2.309v2.309H0z" class="cls-1" data-name="Rectangle 56"/>
        </g>
        <g id="Group_45" data-name="Group 45" transform="translate(43.874 10.391)">
            <path id="Rectangle_57" d="M0 0h2.309v2.309H0z" class="cls-1" data-name="Rectangle 57"/>
        </g>
        <g id="Group_46" data-name="Group 46" transform="translate(9.237 10.391)">
            <path id="Rectangle_58" d="M0 0h2.309v2.309H0z" class="cls-1" data-name="Rectangle 58"/>
        </g>
        <g id="Group_47" data-name="Group 47" transform="translate(13.855 10.391)">
            <path id="Rectangle_59" d="M0 0h2.309v2.309H0z" class="cls-1" data-name="Rectangle 59"/>
        </g>
        <g id="Group_48" data-name="Group 48" transform="translate(18.474 10.391)">
            <path id="Rectangle_60" d="M0 0h2.309v2.309H0z" class="cls-1" data-name="Rectangle 60"/>
        </g>
    </g>
</svg>
