<svg xmlns="http://www.w3.org/2000/svg" width="58.866" height="45.335" viewBox="0 0 58.866 45.335">
    <defs>
        <style>
            .cls-1{fill:#037c89}
        </style>
    </defs>
    <g id="bl_684_customer_engagement_handshake_partner_hands_agreement_business_contract" data-name="bl 684, customer engagement, handshake, partner, hands, agreement, business, contract" transform="translate(0 -7)">
        <g id="Group_76" data-name="Group 76" transform="translate(0 7)">
            <g id="Group_75" data-name="Group 75" transform="translate(5.024 24.866)">
                <path id="Path_66" d="M26.068 45.74a4.412 4.412 0 0 1-2.369-.692l-1.493-.879a1.226 1.226 0 1 1 1.246-2.113l1.527.9a1.989 1.989 0 1 0 2.163-3.338l-1.931-1.224a1.226 1.226 0 1 1 1.313-2.072l1.931 1.224a4.446 4.446 0 0 1-2.386 8.194z" class="cls-1" data-name="Path 66" transform="translate(-.134 -25.272)"/>
                <path id="Path_67" d="M32.119 43.316a4.415 4.415 0 0 1-2.37-.689L24.65 39.4a1.226 1.226 0 1 1 1.313-2.072l5.1 3.231a1.988 1.988 0 1 0 2.126-3.359l-5.1-3.231a1.226 1.226 0 1 1 1.311-2.074l5.1 3.231a4.439 4.439 0 0 1-2.383 8.191z" class="cls-1" data-name="Path 67" transform="translate(.427 -26.274)"/>
                <path id="Path_68" d="M38.091 40.9a4.412 4.412 0 0 1-2.369-.692l-8.266-5.238a1.226 1.226 0 1 1 1.313-2.07l8.266 5.238a1.988 1.988 0 1 0 2.129-3.358L30.9 29.539a1.226 1.226 0 1 1 1.313-2.072l8.266 5.238a4.446 4.446 0 0 1-2.388 8.195z" class="cls-1" data-name="Path 68" transform="translate(1.062 -27.276)"/>
                <g id="Group_74" data-name="Group 74" transform="translate(0 2.112)">
                    <path id="Path_69" d="M8.387 37.587a4.295 4.295 0 1 1 3.69-2.089 4.262 4.262 0 0 1-2.638 1.958 4.315 4.315 0 0 1-1.052.131zm.013-6.133a1.84 1.84 0 1 0 1.576 2.785A1.84 1.84 0 0 0 8.4 31.454zm2.628 3.414z" class="cls-1" data-name="Path 69" transform="translate(-4.097 -28.998)"/>
                    <path id="Path_70" d="M12.674 40.542a4.261 4.261 0 0 1-2.2-.61A4.3 4.3 0 0 1 9 34.045l1.26-2.1a4.292 4.292 0 1 1 7.363 4.412l-1.261 2.1a4.292 4.292 0 0 1-3.689 2.084zm-.939-2.713a1.841 1.841 0 0 0 2.525-.629l1.261-2.1a1.84 1.84 0 1 0-3.157-1.9L11.1 35.3a1.844 1.844 0 0 0 .631 2.525z" class="cls-1" data-name="Path 70" transform="translate(-3.125 -28.804)"/>
                    <path id="Path_71" d="M16.964 43.306a4.29 4.29 0 0 1-3.674-6.5l1.891-3.155a4.292 4.292 0 0 1 7.363 4.412l-1.891 3.156a4.3 4.3 0 0 1-3.689 2.084zm1.9-9.286a1.87 1.87 0 0 0-.45.056 1.83 1.83 0 0 0-1.132.838l-1.889 3.156a1.839 1.839 0 0 0 .632 2.522 1.843 1.843 0 0 0 2.525-.632l1.891-3.155a1.841 1.841 0 0 0-1.575-2.787z" class="cls-1" data-name="Path 71" transform="translate(-2.154 -28.417)"/>
                    <path id="Path_72" d="M21.253 45.3a4.291 4.291 0 1 1 3.689-2.085 4.293 4.293 0 0 1-3.689 2.085zm.011-6.132a1.84 1.84 0 1 0 1.572 2.787 1.844 1.844 0 0 0-.632-2.525 1.823 1.823 0 0 0-.941-.262z" class="cls-1" data-name="Path 72" transform="translate(-1.183 -27.252)"/>
                </g>
            </g>
            <path id="Path_73" d="M8.131 32.132a1.219 1.219 0 0 1-.734-.246l-4.906-3.679a1.226 1.226 0 1 1 1.471-1.962l4.906 3.679a1.226 1.226 0 0 1-.737 2.207z" class="cls-1" data-name="Path 73" transform="translate(.452 -2.699)"/>
            <path id="Path_74" d="M47.282 41.389A4.412 4.412 0 0 1 44.9 40.7l-11.4-7.251a1.226 1.226 0 0 1 1.315-2.07l11.405 7.249a2 2 0 1 0 2.133-3.394l-9.486-6.561a8.9 8.9 0 0 0-5.11-1.573l-6.812.061-3.8 3.177a4.568 4.568 0 1 1-6.363-6.556l7.489-6.429H28.3a35.449 35.449 0 0 0 19.727-5.973l1.769-1.18a1.226 1.226 0 1 1 1.361 2.041l-1.769 1.18a37.891 37.891 0 0 1-21.088 6.39h-3.124l-6.737 5.78a2.07 2.07 0 0 0-.568 1.465 2.1 2.1 0 0 0 .654 1.514 2.126 2.126 0 0 0 2.962-.034l4.559-3.816 7.689-.068h.1a11.24 11.24 0 0 1 6.425 2l9.44 6.532a4.38 4.38 0 0 1 1.949 2.785 4.452 4.452 0 0 1-4.364 5.42z" class="cls-1" data-name="Path 74" transform="translate(3.484 -6.321)"/>
            <path id="Path_75" d="M42.442 31.637a1.226 1.226 0 0 1-.814-2.144l5.843-5.185a1.227 1.227 0 1 1 1.629 1.836l-5.843 5.185a1.223 1.223 0 0 1-.815.308z" class="cls-1" data-name="Path 75" transform="translate(9.33 -3.152)"/>
            <path id="Path_76" d="M28.207 20.49a38.257 38.257 0 0 1-22.81-7.6L.491 9.207a1.226 1.226 0 1 1 1.471-1.962l4.906 3.679a35.793 35.793 0 0 0 21.339 7.113 1.226 1.226 0 0 1 0 2.453z" class="cls-1" data-name="Path 76" transform="translate(0 -7)"/>
        </g>
        <circle id="Ellipse_12" cx="1.226" cy="1.226" r="1.226" class="cls-1" data-name="Ellipse 12" transform="translate(56.413 8.226)"/>
        <circle id="Ellipse_13" cx="1.226" cy="1.226" r="1.226" class="cls-1" data-name="Ellipse 13" transform="translate(0 27.848)"/>
    </g>
</svg>
